<mxfile host="app.diagrams.net" modified="2020-07-01T14:24:38.506Z" agent="5.0 (Macintosh; Intel Mac OS X 10_15_3) AppleWebKit/537.36 (KHTML, like Gecko) Chrome/83.0.4103.106 Safari/537.36" etag="dS1PJGhxHV5x5i7Agqui" version="13.3.5" type="github">
  <diagram id="jsOqfRl2HuDDLTiKSXGF" name="第 1 页">
    <mxGraphModel dx="1186" dy="1859" grid="1" gridSize="10" guides="1" tooltips="1" connect="1" arrows="1" fold="1" page="1" pageScale="1" pageWidth="827" pageHeight="1169" math="0" shadow="0">
      <root>
        <mxCell id="0" />
        <mxCell id="1" parent="0" />
        <mxCell id="qKTiurrqJRX7rP7bYXg1-7" style="edgeStyle=orthogonalEdgeStyle;rounded=0;orthogonalLoop=1;jettySize=auto;html=1;" parent="1" source="qKTiurrqJRX7rP7bYXg1-1" target="qKTiurrqJRX7rP7bYXg1-3" edge="1">
          <mxGeometry relative="1" as="geometry" />
        </mxCell>
        <mxCell id="qKTiurrqJRX7rP7bYXg1-1" value="&lt;div style=&quot;text-align: justify&quot;&gt;&lt;span&gt;producer&lt;/span&gt;&lt;/div&gt;&lt;div style=&quot;text-align: justify&quot;&gt;&lt;span&gt;&lt;br&gt;&lt;/span&gt;&lt;/div&gt;&lt;div style=&quot;text-align: justify&quot;&gt;&lt;span&gt;支持 同、异&lt;/span&gt;&lt;/div&gt;&lt;div style=&quot;text-align: justify&quot;&gt;&lt;span&gt;顺序、单向&lt;/span&gt;&lt;/div&gt;&lt;div style=&quot;text-align: justify&quot;&gt;&lt;span&gt;等发送方式&lt;/span&gt;&lt;/div&gt;&lt;div style=&quot;text-align: justify&quot;&gt;&lt;span&gt;&lt;font color=&quot;#ff0080&quot;&gt;同步和异步&lt;/font&gt;&lt;/span&gt;&lt;/div&gt;&lt;div style=&quot;text-align: justify&quot;&gt;&lt;font color=&quot;#ff0080&quot;&gt;需要返回确认&lt;/font&gt;&lt;/div&gt;&lt;div style=&quot;text-align: justify&quot;&gt;&lt;span&gt;&lt;font color=&quot;#ff0080&quot;&gt;信息&lt;/font&gt;&lt;/span&gt;&lt;/div&gt;&lt;div style=&quot;text-align: justify&quot;&gt;&lt;span&gt;&lt;br&gt;&lt;/span&gt;&lt;/div&gt;&lt;div style=&quot;text-align: justify&quot;&gt;&lt;span&gt;&lt;br&gt;&lt;/span&gt;&lt;/div&gt;&lt;div style=&quot;text-align: justify&quot;&gt;&lt;span&gt;&lt;br&gt;&lt;/span&gt;&lt;/div&gt;&lt;div style=&quot;text-align: justify&quot;&gt;&lt;span&gt;&lt;br&gt;&lt;/span&gt;&lt;/div&gt;&lt;div style=&quot;text-align: justify&quot;&gt;&lt;span&gt;&lt;br&gt;&lt;/span&gt;&lt;/div&gt;&lt;div style=&quot;text-align: justify&quot;&gt;&lt;span&gt;&lt;br&gt;&lt;/span&gt;&lt;/div&gt;&lt;div style=&quot;text-align: justify&quot;&gt;&lt;span&gt;&lt;br&gt;&lt;/span&gt;&lt;/div&gt;&lt;div style=&quot;text-align: justify&quot;&gt;&lt;span&gt;&lt;br&gt;&lt;/span&gt;&lt;/div&gt;" style="rounded=0;whiteSpace=wrap;html=1;align=center;" parent="1" vertex="1">
          <mxGeometry x="60" y="20" width="130" height="240" as="geometry" />
        </mxCell>
        <mxCell id="qKTiurrqJRX7rP7bYXg1-9" style="edgeStyle=orthogonalEdgeStyle;rounded=0;orthogonalLoop=1;jettySize=auto;html=1;entryX=1;entryY=0.5;entryDx=0;entryDy=0;" parent="1" source="qKTiurrqJRX7rP7bYXg1-2" target="qKTiurrqJRX7rP7bYXg1-6" edge="1">
          <mxGeometry relative="1" as="geometry" />
        </mxCell>
        <mxCell id="qKTiurrqJRX7rP7bYXg1-2" value="consumere" style="rounded=0;whiteSpace=wrap;html=1;" parent="1" vertex="1">
          <mxGeometry x="720" y="70" width="120" height="60" as="geometry" />
        </mxCell>
        <mxCell id="qKTiurrqJRX7rP7bYXg1-3" value="broker&lt;br&gt;存储多个topic&lt;br&gt;信息&lt;br&gt;" style="rounded=0;whiteSpace=wrap;html=1;" parent="1" vertex="1">
          <mxGeometry x="310" y="20" width="110" height="160" as="geometry" />
        </mxCell>
        <mxCell id="qKTiurrqJRX7rP7bYXg1-12" style="edgeStyle=orthogonalEdgeStyle;rounded=0;orthogonalLoop=1;jettySize=auto;html=1;entryX=0.5;entryY=0;entryDx=0;entryDy=0;fontSize=16;" parent="1" source="qKTiurrqJRX7rP7bYXg1-4" target="qKTiurrqJRX7rP7bYXg1-11" edge="1">
          <mxGeometry relative="1" as="geometry" />
        </mxCell>
        <mxCell id="qKTiurrqJRX7rP7bYXg1-4" value="topic1" style="rounded=0;whiteSpace=wrap;html=1;fillColor=#fff2cc;strokeColor=#d6b656;" parent="1" vertex="1">
          <mxGeometry x="310" y="130" width="50" height="50" as="geometry" />
        </mxCell>
        <mxCell id="qKTiurrqJRX7rP7bYXg1-6" value="broker&lt;br&gt;存储多个topic&lt;br&gt;信息&lt;br&gt;" style="rounded=0;whiteSpace=wrap;html=1;" parent="1" vertex="1">
          <mxGeometry x="450" y="20" width="110" height="160" as="geometry" />
        </mxCell>
        <mxCell id="qKTiurrqJRX7rP7bYXg1-5" value="topic1" style="rounded=0;whiteSpace=wrap;html=1;fillColor=#fff2cc;strokeColor=#d6b656;" parent="1" vertex="1">
          <mxGeometry x="450" y="130" width="50" height="50" as="geometry" />
        </mxCell>
        <mxCell id="qKTiurrqJRX7rP7bYXg1-8" value="&lt;font color=&quot;#00ff00&quot; style=&quot;font-size: 16px;&quot;&gt;发送&lt;/font&gt;" style="text;html=1;align=center;verticalAlign=middle;resizable=0;points=[];autosize=1;fontSize=16;" parent="1" vertex="1">
          <mxGeometry x="215" y="80" width="50" height="20" as="geometry" />
        </mxCell>
        <mxCell id="qKTiurrqJRX7rP7bYXg1-10" value="&lt;font color=&quot;#00ff00&quot; style=&quot;font-size: 16px;&quot;&gt;拉取消息&lt;/font&gt;" style="text;html=1;align=center;verticalAlign=middle;resizable=0;points=[];autosize=1;fontSize=16;" parent="1" vertex="1">
          <mxGeometry x="609" y="79" width="80" height="20" as="geometry" />
        </mxCell>
        <mxCell id="qKTiurrqJRX7rP7bYXg1-11" value="&lt;span style=&quot;color: rgb(36 , 41 , 46) ; font-family: , , &amp;#34;segoe ui&amp;#34; , &amp;#34;helvetica&amp;#34; , &amp;#34;arial&amp;#34; , sans-serif , &amp;#34;apple color emoji&amp;#34; , &amp;#34;segoe ui emoji&amp;#34; ; background-color: rgb(255 , 255 , 255)&quot;&gt;表示一类消息的集合，每个&lt;/span&gt;&lt;span style=&quot;background-color: rgb(255 , 255 , 255)&quot;&gt;&lt;font color=&quot;#ff0080&quot;&gt;主题包含若干条消息，每条消息只能属于一个主题&lt;/font&gt;&lt;/span&gt;&lt;span style=&quot;color: rgb(36 , 41 , 46) ; font-family: , , &amp;#34;segoe ui&amp;#34; , &amp;#34;helvetica&amp;#34; , &amp;#34;arial&amp;#34; , sans-serif , &amp;#34;apple color emoji&amp;#34; , &amp;#34;segoe ui emoji&amp;#34; ; background-color: rgb(255 , 255 , 255)&quot;&gt;，是RocketMQ进行消息订阅的基本单位&lt;/span&gt;" style="rounded=0;whiteSpace=wrap;html=1;fontSize=16;" parent="1" vertex="1">
          <mxGeometry x="250" y="260" width="416" height="70" as="geometry" />
        </mxCell>
        <mxCell id="tC8K8kosgFXJWRqXy7Uc-1" value="Name node&lt;br&gt;存储所有topic 对应所在那个broker中的ip地址&lt;br&gt;" style="rounded=0;whiteSpace=wrap;html=1;" vertex="1" parent="1">
          <mxGeometry x="230" y="-160" width="120" height="60" as="geometry" />
        </mxCell>
      </root>
    </mxGraphModel>
  </diagram>
</mxfile>
